<svg width="35" height="30" viewBox="0 0 35 30" fill="none" xmlns="http://www.w3.org/2000/svg">
<path fill-rule="evenodd" clip-rule="evenodd" d="M31.8347 8.34093C31.7402 8.33537 31.6397 8.33315 31.533 8.33426H27.3247C23.878 8.33426 20.9297 11.0476 20.9297 14.5843C20.9297 18.1209 23.8797 20.8343 27.3247 20.8343H31.533C31.6397 20.8354 31.7408 20.8332 31.8364 20.8276C32.5447 20.7849 33.2134 20.4861 33.7178 19.9869C34.2222 19.4877 34.528 18.8222 34.578 18.1143C34.5847 18.0143 34.5847 17.9059 34.5847 17.8059V11.3626C34.5847 11.2626 34.5847 11.1543 34.578 11.0543C34.528 10.3464 34.2222 9.68082 33.7178 9.18162C33.2134 8.68243 32.5431 8.38364 31.8347 8.34093ZM26.9564 16.2509C27.843 16.2509 28.5614 15.5043 28.5614 14.5843C28.5614 13.6643 27.843 12.9176 26.9564 12.9176C26.068 12.9176 25.3497 13.6643 25.3497 14.5843C25.3497 15.5043 26.068 16.2509 26.9564 16.2509Z" fill="#0082FF"/>
<path fill-rule="evenodd" clip-rule="evenodd" d="M31.53 23.3333C31.5876 23.331 31.645 23.3423 31.6974 23.3663C31.7498 23.3904 31.7959 23.4264 31.8317 23.4715C31.8676 23.5167 31.8924 23.5696 31.9039 23.6261C31.9155 23.6826 31.9136 23.7411 31.8983 23.7967C31.565 24.9833 31.0333 25.9967 30.1817 26.8467C28.9333 28.0967 27.3517 28.6483 25.3983 28.9117C23.4983 29.1667 21.0733 29.1667 18.01 29.1667H14.49C11.4267 29.1667 9 29.1667 7.10167 28.9117C5.14833 28.6483 3.56667 28.095 2.31833 26.8483C1.07167 25.6 0.518334 24.0183 0.255 22.065C1.98682e-07 20.165 0 17.74 0 14.6767V14.49C0 11.4267 1.98682e-07 9 0.255 7.1C0.518334 5.14667 1.07167 3.565 2.31833 2.31667C3.56667 1.07 5.14833 0.516667 7.10167 0.253333C9.00167 -7.45058e-08 11.4267 0 14.49 0H18.01C21.0733 0 23.5 1.98682e-07 25.3983 0.255C27.3517 0.518334 28.9333 1.07167 30.1817 2.31833C31.0333 3.17167 31.565 4.18333 31.8983 5.37C31.9136 5.42561 31.9155 5.48404 31.9039 5.54053C31.8924 5.59703 31.8676 5.64999 31.8317 5.69513C31.7959 5.74027 31.7498 5.77631 31.6974 5.80033C31.645 5.82434 31.5876 5.83565 31.53 5.83333H27.3233C22.595 5.83333 18.4283 9.56667 18.4283 14.5833C18.4283 19.6 22.595 23.3333 27.3233 23.3333H31.53ZM6.25 6.66667C5.91848 6.66667 5.60054 6.79836 5.36612 7.03278C5.1317 7.2672 5 7.58515 5 7.91667C5 8.24819 5.1317 8.56613 5.36612 8.80055C5.60054 9.03497 5.91848 9.16667 6.25 9.16667H12.9167C13.2482 9.16667 13.5661 9.03497 13.8006 8.80055C14.035 8.56613 14.1667 8.24819 14.1667 7.91667C14.1667 7.58515 14.035 7.2672 13.8006 7.03278C13.5661 6.79836 13.2482 6.66667 12.9167 6.66667H6.25Z" fill="#0082FF"/>
</svg>
