<svg width="20" height="20" viewBox="0 0 20 20" fill="none" xmlns="http://www.w3.org/2000/svg">
<path d="M10.8274 18.715L10.8183 18.7167L10.7591 18.7458L10.7424 18.7492L10.7308 18.7458L10.6716 18.7167C10.6627 18.7139 10.6561 18.7153 10.6516 18.7208L10.6483 18.7292L10.6341 19.0858L10.6383 19.1025L10.6466 19.1133L10.7333 19.175L10.7458 19.1783L10.7558 19.175L10.8424 19.1133L10.8524 19.1L10.8558 19.0858L10.8416 18.73C10.8394 18.7211 10.8347 18.7161 10.8274 18.715ZM11.0483 18.6208L11.0374 18.6225L10.8833 18.7L10.8749 18.7083L10.8724 18.7175L10.8874 19.0758L10.8916 19.0858L10.8983 19.0917L11.0658 19.1692C11.0763 19.1719 11.0844 19.1697 11.0899 19.1625L11.0933 19.1508L11.0649 18.6392C11.0622 18.6292 11.0566 18.6231 11.0483 18.6208ZM10.4524 18.6225C10.4488 18.6203 10.4444 18.6196 10.4402 18.6205C10.436 18.6214 10.4323 18.6239 10.4299 18.6275L10.4249 18.6392L10.3966 19.1508C10.3972 19.1608 10.4019 19.1675 10.4108 19.1708L10.4233 19.1692L10.5908 19.0917L10.5991 19.085L10.6024 19.0758L10.6166 18.7175L10.6141 18.7075L10.6058 18.6992L10.4524 18.6225Z" fill="black"/>
<path d="M10.3333 1C14.9358 1 18.6667 4.73083 18.6667 9.33333C18.6667 13.9358 14.9358 17.6667 10.3333 17.6667C5.73083 17.6667 2 13.9358 2 9.33333C2 4.73083 5.73083 1 10.3333 1ZM10.3333 2.66667C8.56522 2.66667 6.86953 3.36905 5.61929 4.61929C4.36905 5.86953 3.66667 7.56522 3.66667 9.33333C3.66667 11.1014 4.36905 12.7971 5.61929 14.0474C6.86953 15.2976 8.56522 16 10.3333 16C12.1014 16 13.7971 15.2976 15.0474 14.0474C16.2976 12.7971 17 11.1014 17 9.33333C17 7.56522 16.2976 5.86953 15.0474 4.61929C13.7971 3.36905 12.1014 2.66667 10.3333 2.66667ZM14.4583 5.20833C14.7875 5.53833 14.7892 6.025 14.7383 6.46667L14.7075 6.7025C14.5742 7.63583 14.2033 9.015 13.6725 10.1658C13.4142 10.7258 13.0892 11.2917 12.69 11.6908C12.2917 12.0883 11.7267 12.4142 11.165 12.6725C10.015 13.2033 8.63583 13.5742 7.7025 13.7075L7.4675 13.7383C7.02583 13.7883 6.53583 13.785 6.20917 13.4583C5.91167 13.1608 5.88167 12.7292 5.91667 12.3208L5.94333 12.0792L5.95917 11.9642C6.0925 11.0308 6.46333 9.65167 6.99417 8.50083C7.2525 7.94083 7.5775 7.375 7.97667 6.97583C8.375 6.5775 8.94083 6.2525 9.50167 5.99417C10.6517 5.46333 12.0308 5.0925 12.9642 4.95917L13.1992 4.92833C13.6408 4.87833 14.1283 4.87833 14.4575 5.20833H14.4583ZM13.0317 6.635C12.275 6.76417 11.0958 7.09333 10.1983 7.5075C9.70083 7.7375 9.34583 7.96417 9.155 8.155C8.96417 8.34583 8.7375 8.70083 8.5075 9.19833C8.09417 10.0958 7.76417 11.275 7.635 12.0317C8.39167 11.9025 9.57083 11.5733 10.4683 11.1592C10.9658 10.9292 11.3208 10.7025 11.5117 10.5117C11.7025 10.3208 11.93 9.96583 12.1592 9.46833C12.5725 8.57083 12.9033 7.39167 13.0317 6.635ZM10.3333 8.5C10.5543 8.5 10.7663 8.5878 10.9226 8.74408C11.0789 8.90036 11.1667 9.11232 11.1667 9.33333C11.1667 9.55435 11.0789 9.76631 10.9226 9.92259C10.7663 10.0789 10.5543 10.1667 10.3333 10.1667C10.1123 10.1667 9.90036 10.0789 9.74408 9.92259C9.5878 9.76631 9.5 9.55435 9.5 9.33333C9.5 9.11232 9.5878 8.90036 9.74408 8.74408C9.90036 8.5878 10.1123 8.5 10.3333 8.5Z" fill="black"/>
</svg>
