<svg width="17" height="19" viewBox="0 0 17 19" fill="none" xmlns="http://www.w3.org/2000/svg">
<path d="M8.82732 17.715L8.81815 17.7167L8.75898 17.7458L8.74232 17.7492L8.73065 17.7458L8.67148 17.7167C8.6626 17.7139 8.65593 17.7153 8.65148 17.7208L8.64815 17.7292L8.63398 18.0858L8.63815 18.1025L8.64648 18.1133L8.73315 18.175L8.74565 18.1783L8.75565 18.175L8.84232 18.1133L8.85232 18.1L8.85565 18.0858L8.84148 17.73C8.83926 17.7211 8.83454 17.7161 8.82732 17.715ZM9.04815 17.6208L9.03732 17.6225L8.88315 17.7L8.87482 17.7083L8.87232 17.7175L8.88732 18.0758L8.89148 18.0858L8.89815 18.0917L9.06565 18.1692C9.07621 18.1719 9.08426 18.1697 9.08982 18.1625L9.09315 18.1508L9.06482 17.6392C9.06204 17.6292 9.05648 17.6231 9.04815 17.6208ZM8.45232 17.6225C8.44864 17.6203 8.44426 17.6196 8.44006 17.6205C8.43587 17.6214 8.4322 17.6239 8.42982 17.6275L8.42482 17.6392L8.39648 18.1508C8.39704 18.1608 8.40176 18.1675 8.41065 18.1708L8.42315 18.1692L8.59065 18.0917L8.59898 18.085L8.60232 18.0758L8.61648 17.7175L8.61398 17.7075L8.60565 17.6992L8.45232 17.6225Z" fill="white"/>
<path d="M8.33333 0C12.9358 0 16.6667 3.73083 16.6667 8.33333C16.6667 12.9358 12.9358 16.6667 8.33333 16.6667C3.73083 16.6667 0 12.9358 0 8.33333C0 3.73083 3.73083 0 8.33333 0ZM11.8692 4.7975C11.5742 4.50333 7.74417 5.38667 6.56583 6.56583C5.3875 7.74417 4.50333 11.5742 4.7975 11.8692C5.0925 12.1633 8.9225 11.28 10.1008 10.1008C11.28 8.9225 12.1633 5.0925 11.8692 4.7975ZM8.33333 7.5C8.55435 7.5 8.76631 7.5878 8.92259 7.74408C9.07887 7.90036 9.16667 8.11232 9.16667 8.33333C9.16667 8.55435 9.07887 8.76631 8.92259 8.92259C8.76631 9.07887 8.55435 9.16667 8.33333 9.16667C8.11232 9.16667 7.90036 9.07887 7.74408 8.92259C7.5878 8.76631 7.5 8.55435 7.5 8.33333C7.5 8.11232 7.5878 7.90036 7.74408 7.74408C7.90036 7.5878 8.11232 7.5 8.33333 7.5Z" fill="white"/>
</svg>
