<svg width="34" height="27" viewBox="0 0 34 27" fill="none" xmlns="http://www.w3.org/2000/svg">
<mask id="mask0_6205_8895" style="mask-type:luminance" maskUnits="userSpaceOnUse" x="0" y="0" width="34" height="27">
<path d="M20.3334 0.166687H13.6668C7.38176 0.166687 4.23842 0.166687 2.28676 2.12002C0.880091 3.52502 0.486758 5.54835 0.376758 8.91669H33.6234C33.5134 5.54835 33.1201 3.52502 31.7134 2.12002C29.7618 0.166687 26.6184 0.166687 20.3334 0.166687ZM13.6668 26.8334H20.3334C26.6184 26.8334 29.7618 26.8334 31.7134 24.88C33.6651 22.9267 33.6668 19.785 33.6668 13.5C33.6668 12.7645 33.6656 12.07 33.6634 11.4167H0.336758C0.333425 12.07 0.332313 12.7645 0.333424 13.5C0.333424 19.785 0.333424 22.9284 2.28676 24.88C4.24009 26.8317 7.38176 26.8334 13.6668 26.8334Z" fill="white"/>
<path fill-rule="evenodd" clip-rule="evenodd" d="M5.75 20.1667C5.75 19.8352 5.8817 19.5172 6.11612 19.2828C6.35054 19.0484 6.66848 18.9167 7 18.9167H13.6667C13.9982 18.9167 14.3161 19.0484 14.5505 19.2828C14.785 19.5172 14.9167 19.8352 14.9167 20.1667C14.9167 20.4982 14.785 20.8162 14.5505 21.0506C14.3161 21.285 13.9982 21.4167 13.6667 21.4167H7C6.66848 21.4167 6.35054 21.285 6.11612 21.0506C5.8817 20.8162 5.75 20.4982 5.75 20.1667ZM16.5833 20.1667C16.5833 19.8352 16.715 19.5172 16.9495 19.2828C17.1839 19.0484 17.5018 18.9167 17.8333 18.9167H20.3333C20.6649 18.9167 20.9828 19.0484 21.2172 19.2828C21.4516 19.5172 21.5833 19.8352 21.5833 20.1667C21.5833 20.4982 21.4516 20.8162 21.2172 21.0506C20.9828 21.285 20.6649 21.4167 20.3333 21.4167H17.8333C17.5018 21.4167 17.1839 21.285 16.9495 21.0506C16.715 20.8162 16.5833 20.4982 16.5833 20.1667Z" fill="black"/>
</mask>
<g mask="url(#mask0_6205_8895)">
<path d="M-3 -6.5H37V33.5H-3V-6.5Z" fill="#0082FF"/>
</g>
</svg>
