<svg width="20" height="20" viewBox="0 0 20 20" fill="none" xmlns="http://www.w3.org/2000/svg">
<path d="M8.44444 3H3.77778C3.5715 3 3.37367 3.08194 3.22781 3.22781C3.08194 3.37367 3 3.5715 3 3.77778V8.44444C3 8.65072 3.08194 8.84855 3.22781 8.99442C3.37367 9.14028 3.5715 9.22222 3.77778 9.22222H8.44444C8.65072 9.22222 8.84855 9.14028 8.99442 8.99442C9.14028 8.84855 9.22222 8.65072 9.22222 8.44444V3.77778C9.22222 3.5715 9.14028 3.37367 8.99442 3.22781C8.84855 3.08194 8.65072 3 8.44444 3ZM16.2222 3H11.5556C11.3493 3 11.1514 3.08194 11.0056 3.22781C10.8597 3.37367 10.7778 3.5715 10.7778 3.77778V8.44444C10.7778 8.65072 10.8597 8.84855 11.0056 8.99442C11.1514 9.14028 11.3493 9.22222 11.5556 9.22222H16.2222C16.4285 9.22222 16.6263 9.14028 16.7722 8.99442C16.9181 8.84855 17 8.65072 17 8.44444V3.77778C17 3.5715 16.9181 3.37367 16.7722 3.22781C16.6263 3.08194 16.4285 3 16.2222 3ZM8.44444 10.7778H3.77778C3.5715 10.7778 3.37367 10.8597 3.22781 11.0056C3.08194 11.1514 3 11.3493 3 11.5556V16.2222C3 16.4285 3.08194 16.6263 3.22781 16.7722C3.37367 16.9181 3.5715 17 3.77778 17H8.44444C8.65072 17 8.84855 16.9181 8.99442 16.7722C9.14028 16.6263 9.22222 16.4285 9.22222 16.2222V11.5556C9.22222 11.3493 9.14028 11.1514 8.99442 11.0056C8.84855 10.8597 8.65072 10.7778 8.44444 10.7778ZM13.8889 10.7778C14.4976 10.7778 15.0929 10.9563 15.6011 11.2913C16.1093 11.6263 16.5081 12.1031 16.7481 12.6625C16.988 13.2219 17.0586 13.8394 16.9511 14.4385C16.8435 15.0376 16.5626 15.592 16.1431 16.0331C15.7236 16.4741 15.1839 16.7824 14.5909 16.9198C13.9979 17.0571 13.3777 17.0175 12.807 16.8058C12.2363 16.5941 11.7402 16.2197 11.3802 15.7289C11.0202 15.238 10.8121 14.6524 10.7817 14.0444L10.7778 13.8889L10.7817 13.7333C10.8216 12.9361 11.1664 12.1848 11.7447 11.6347C12.323 11.0846 13.0907 10.7778 13.8889 10.7778Z" fill="white"/>
</svg>
