<svg width="16" height="16" viewBox="0 0 16 16" fill="none" xmlns="http://www.w3.org/2000/svg">
<path d="M1 1H6.25V6.25H1V1ZM9.75 1H15V6.25H9.75V1ZM1 9.75H6.25V15H1V9.75ZM9.75 12.375C9.75 13.0712 10.0266 13.7389 10.5188 14.2312C11.0111 14.7234 11.6788 15 12.375 15C13.0712 15 13.7389 14.7234 14.2312 14.2312C14.7234 13.7389 15 13.0712 15 12.375C15 11.6788 14.7234 11.0111 14.2312 10.5188C13.7389 10.0266 13.0712 9.75 12.375 9.75C11.6788 9.75 11.0111 10.0266 10.5188 10.5188C10.0266 11.0111 9.75 11.6788 9.75 12.375Z" stroke="black" stroke-width="1.66667" stroke-linecap="round" stroke-linejoin="round"/>
</svg>
