<svg width="25" height="24" viewBox="0 0 25 24" fill="none" xmlns="http://www.w3.org/2000/svg">
<path d="M23.06 12.25C23.06 11.47 22.99 10.72 22.86 10H12.5V14.255H18.42C18.165 15.63 17.39 16.795 16.225 17.575V20.335H19.78C21.86 18.42 23.06 15.6 23.06 12.25Z" fill="#4285F4"/>
<path d="M12.5019 23.0001C15.4719 23.0001 17.9619 22.0151 19.7819 20.3351L16.2269 17.5751C15.2419 18.2351 13.9819 18.6251 12.5019 18.6251C9.63688 18.6251 7.21187 16.6901 6.34687 14.0901H2.67188V16.9401C4.48187 20.5351 8.20187 23.0001 12.5019 23.0001Z" fill="#34A853"/>
<path d="M6.345 14.0896C6.125 13.4296 6 12.7246 6 11.9996C6 11.2746 6.125 10.5696 6.345 9.90957V7.05957H2.67C1.9 8.59243 1.49932 10.2842 1.5 11.9996C1.5 13.7746 1.925 15.4546 2.67 16.9396L6.345 14.0896Z" fill="#FBBC05"/>
<path d="M12.5019 5.375C14.1169 5.375 15.5669 5.93 16.7069 7.02L19.8619 3.865C17.9569 2.09 15.4669 1 12.5019 1C8.20187 1 4.48187 3.465 2.67188 7.06L6.34687 9.91C7.21187 7.31 9.63688 5.375 12.5019 5.375Z" fill="#EA4335"/>
</svg>
