<svg width="21" height="20" viewBox="0 0 21 20" fill="none" xmlns="http://www.w3.org/2000/svg">
<path d="M1.3335 15L1.75016 13.3333H6.3335L5.91683 15H1.3335ZM3.00016 11.6667L3.41683 10H8.8335L8.41683 11.6667H3.00016ZM15.9793 16.6667L16.396 13.3333L17.0002 8.33333L17.2085 6.6875L15.9793 16.6667ZM5.50016 18.3333C5.04183 18.3333 4.64961 18.1703 4.3235 17.8442C3.99738 17.5181 3.83405 17.1256 3.8335 16.6667H15.9793L17.2085 6.6875H14.9168L14.6877 8.45833C14.6599 8.69444 14.5557 8.87861 14.3752 9.01083C14.1946 9.14306 13.9863 9.195 13.7502 9.16667C13.5141 9.13833 13.3302 9.0375 13.1985 8.86417C13.0668 8.69083 13.0146 8.48611 13.0418 8.25L13.2293 6.6875H9.91683L9.68766 8.4375C9.65988 8.67361 9.55572 8.86111 9.37516 9C9.19461 9.13889 8.98627 9.19444 8.75016 9.16667C8.51405 9.13889 8.32655 9.03472 8.18766 8.85417C8.04877 8.67361 7.99322 8.46528 8.021 8.22917L8.2085 6.6875H5.0835C5.13905 6.21528 5.31961 5.81611 5.62516 5.49C5.93072 5.16389 6.30572 5.00056 6.75016 5H8.41683C8.52794 3.95833 8.88572 3.1425 9.49016 2.5525C10.0946 1.9625 10.9174 1.66722 11.9585 1.66667C12.8474 1.66667 13.5871 1.99667 14.1777 2.65667C14.7682 3.31667 15.0563 4.09778 15.0418 5H17.1668C17.6668 5.01389 18.0835 5.20833 18.4168 5.58333C18.7502 5.95833 18.8821 6.39583 18.8127 6.89583L17.5627 16.8958C17.5071 17.3125 17.3229 17.6564 17.0102 17.9275C16.6974 18.1986 16.3329 18.3339 15.9168 18.3333H5.50016ZM10.0835 5H13.396C13.4099 4.54167 13.2538 4.14944 12.9277 3.82333C12.6016 3.49722 12.2091 3.33389 11.7502 3.33333C11.2641 3.33333 10.8785 3.48278 10.5935 3.78167C10.3085 4.08056 10.1385 4.48667 10.0835 5Z" fill="black"/>
</svg>
