<svg width="25" height="24" viewBox="0 0 25 24" fill="none" xmlns="http://www.w3.org/2000/svg">
<g clip-path="url(#clip0_4540_15166)">
<path d="M20.3206 5.58833C20.3206 4.79171 19.675 4.14844 18.8813 4.14844C18.0876 4.14844 17.4414 4.79171 17.4414 5.58833C17.4414 6.38204 18.0876 7.02528 18.8813 7.02528C19.675 7.02528 20.3206 6.38204 20.3206 5.58833Z" fill="url(#paint0_linear_4540_15166)"/>
<path d="M22.2394 16.8274C22.1861 17.9961 21.9906 18.631 21.8284 19.0527C21.6103 19.6118 21.3503 20.0117 20.9286 20.431C20.5116 20.8504 20.1118 21.1098 19.5527 21.3254C19.131 21.49 18.4937 21.6861 17.325 21.7418C16.0617 21.7975 15.6873 21.8093 12.4836 21.8093C9.28274 21.8093 8.90539 21.7975 7.64202 21.7418C6.47344 21.6861 5.83906 21.49 5.4173 21.3254C4.85522 21.1098 4.4584 20.8504 4.03904 20.431C3.61671 20.0117 3.35671 19.6118 3.1417 19.0527C2.97938 18.631 2.78098 17.9961 2.73061 16.8274C2.66904 15.564 2.65776 15.1837 2.65776 11.9865C2.65776 8.78271 2.66904 8.40541 2.73061 7.14199C2.78098 5.97341 2.97938 5.33907 3.1417 4.91377C3.35671 4.35523 3.61671 3.95777 4.03904 3.53842C4.4584 3.11969 4.85522 2.85964 5.4173 2.6417C5.83906 2.47645 6.47344 2.28334 7.64202 2.22768C8.90539 2.17197 9.28274 2.15776 12.4836 2.15776C15.6873 2.15776 16.0617 2.17197 17.325 2.22768C18.4937 2.28334 19.131 2.47645 19.5527 2.6417C20.1118 2.85964 20.5116 3.11969 20.9286 3.53842C21.3503 3.95777 21.6103 4.35523 21.8284 4.91377C21.9906 5.33907 22.1861 5.97341 22.2394 7.14199C22.298 8.40541 22.3122 8.78271 22.3122 11.9865C22.3122 15.1837 22.298 15.564 22.2394 16.8274ZM24.3972 7.0437C24.3386 5.76667 24.1371 4.89422 23.838 4.13431C23.5336 3.34593 23.1255 2.67781 22.4573 2.00969C21.7922 1.34455 21.1241 0.936438 20.3357 0.628452C19.5729 0.332285 18.7033 0.128516 17.4257 0.0728545C16.1481 0.0112397 15.74 0 12.4836 0C9.22998 0 8.81897 0.0112397 7.54135 0.0728545C6.2667 0.128516 5.39775 0.332285 4.63133 0.628452C3.84594 0.936438 3.17782 1.34455 2.51267 2.00969C1.84455 2.67781 1.43644 3.34593 1.12903 4.13431C0.832861 4.89422 0.631492 5.76667 0.569877 7.0437C0.514215 8.32132 0.5 8.72999 0.5 11.9865C0.5 15.2401 0.514215 15.6481 0.569877 16.9257C0.631492 18.2004 0.832861 19.0722 1.12903 19.8357C1.43644 20.6211 1.84455 21.2922 2.51267 21.9574C3.17782 22.6225 3.84594 23.0336 4.63133 23.341C5.39775 23.6371 6.2667 23.8385 7.54135 23.8972C8.81897 23.9558 9.22998 23.97 12.4836 23.97C15.74 23.97 16.1481 23.9558 17.4257 23.8972C18.7033 23.8385 19.5729 23.6371 20.3357 23.341C21.1241 23.0336 21.7922 22.6225 22.4573 21.9574C23.1255 21.2922 23.5336 20.6211 23.838 19.8357C24.1371 19.0722 24.3386 18.2004 24.3972 16.9257C24.4558 15.6481 24.47 15.2401 24.47 11.9865C24.47 8.72999 24.4558 8.32132 24.3972 7.0437Z" fill="url(#paint1_linear_4540_15166)"/>
<path d="M12.4843 15.9781C10.2791 15.9781 8.48978 14.1917 8.48978 11.9865C8.48978 9.77781 10.2791 7.98909 12.4843 7.98909C14.6901 7.98909 16.4818 9.77781 16.4818 11.9865C16.4818 14.1917 14.6901 15.9781 12.4843 15.9781ZM12.4843 5.82837C9.08506 5.82837 6.33203 8.58729 6.33203 11.9865C6.33203 15.3828 9.08506 18.1388 12.4843 18.1388C15.8835 18.1388 18.6395 15.3828 18.6395 11.9865C18.6395 8.58729 15.8835 5.82837 12.4843 5.82837Z" fill="url(#paint2_linear_4540_15166)"/>
</g>
<defs>
<linearGradient id="paint0_linear_4540_15166" x1="0.715306" y1="23.7227" x2="22.4727" y2="1.96541" gradientUnits="userSpaceOnUse">
<stop stop-color="#FFD521"/>
<stop offset="0.05" stop-color="#FFD521"/>
<stop offset="0.501119" stop-color="#F50000"/>
<stop offset="0.95" stop-color="#B900B4"/>
<stop offset="0.950079" stop-color="#B900B4"/>
<stop offset="1" stop-color="#B900B4"/>
</linearGradient>
<linearGradient id="paint1_linear_4540_15166" x1="0.716206" y1="23.7521" x2="22.4915" y2="1.97683" gradientUnits="userSpaceOnUse">
<stop stop-color="#FFD521"/>
<stop offset="0.05" stop-color="#FFD521"/>
<stop offset="0.501119" stop-color="#F50000"/>
<stop offset="0.95" stop-color="#B900B4"/>
<stop offset="0.950079" stop-color="#B900B4"/>
<stop offset="1" stop-color="#B900B4"/>
</linearGradient>
<linearGradient id="paint2_linear_4540_15166" x1="0.722622" y1="23.7527" x2="22.4926" y2="1.9827" gradientUnits="userSpaceOnUse">
<stop stop-color="#FFD521"/>
<stop offset="0.05" stop-color="#FFD521"/>
<stop offset="0.501119" stop-color="#F50000"/>
<stop offset="0.95" stop-color="#B900B4"/>
<stop offset="0.950079" stop-color="#B900B4"/>
<stop offset="1" stop-color="#B900B4"/>
</linearGradient>
<clipPath id="clip0_4540_15166">
<rect width="24" height="24" fill="white" transform="translate(0.5)"/>
</clipPath>
</defs>
</svg>
