<svg width="17" height="17" viewBox="0 0 17 17" fill="none" xmlns="http://www.w3.org/2000/svg">
<path d="M11.1783 3.29167H15.84C16.2967 3.29167 16.6667 3.6625 16.6667 4.125V15.7917C16.6667 16.2517 16.2875 16.625 15.84 16.625H0.826682C0.717622 16.6248 0.609678 16.603 0.509046 16.561C0.408413 16.519 0.317073 16.4575 0.240266 16.38C0.163459 16.3026 0.102698 16.2108 0.0614693 16.1098C0.0202408 16.0088 -0.000643426 15.9007 1.51019e-05 15.7917V4.125C1.51019e-05 3.665 0.379182 3.29167 0.826682 3.29167H5.48835L3.37502 1.17833L4.55335 0L7.84501 3.29167H8.82168L12.1133 0L13.2917 1.17833L11.1783 3.29167ZM1.66668 4.95833V14.9583H15V4.95833H1.66668Z" fill="black"/>
</svg>
