<svg width="14" height="17" viewBox="0 0 14 17" fill="none" xmlns="http://www.w3.org/2000/svg">
<path d="M1.08917 7.05878e-07C0.951241 -0.000215307 0.817833 0.0491537 0.713274 0.139103C0.608715 0.229053 0.539972 0.35359 0.519583 0.490001C0.46125 0.885001 0 4.0275 0 5.41667C0 6.33167 0.394167 7.15583 1.02 7.72667C1.30958 7.99042 1.45833 8.25708 1.45833 8.49417C1.45833 8.51292 1.45792 8.52833 1.45625 8.545C1.41708 9.03417 1.04167 13.74 1.04167 14.5833C1.04167 15.1359 1.26116 15.6658 1.65186 16.0565C2.04256 16.4472 2.57247 16.6667 3.125 16.6667C3.67753 16.6667 4.20744 16.4472 4.59814 16.0565C4.98884 15.6658 5.20833 15.1359 5.20833 14.5833C5.20833 13.74 4.83292 9.03417 4.79375 8.545L4.79167 8.49417C4.79167 8.25708 4.94042 7.99042 5.23 7.72667C5.55177 7.4341 5.80876 7.07743 5.98443 6.6796C6.1601 6.28176 6.25056 5.85156 6.25 5.41667C6.25 4.0275 5.78875 0.883334 5.73042 0.490001C5.71004 0.353661 5.64136 0.22918 5.53688 0.13924C5.43241 0.0492988 5.2991 -0.000115319 5.16125 7.05878e-07H5.15375C4.82208 7.05878e-07 4.58417 0.272917 4.58417 0.570834V4.95C4.58417 5.01128 4.5721 5.07197 4.54864 5.12859C4.52519 5.1852 4.49082 5.23665 4.44748 5.27998C4.40415 5.32332 4.3527 5.35769 4.29609 5.38114C4.23947 5.4046 4.17878 5.41667 4.1175 5.41667C4.05622 5.41667 3.99553 5.4046 3.93891 5.38114C3.8823 5.35769 3.83085 5.32332 3.78752 5.27998C3.74418 5.23665 3.70981 5.1852 3.68636 5.12859C3.6629 5.07197 3.65083 5.01128 3.65083 4.95V0.549584C3.65314 0.478186 3.64089 0.407066 3.61482 0.340557C3.58876 0.274048 3.54942 0.213541 3.49922 0.162725C3.44901 0.111908 3.38898 0.0718452 3.32279 0.0449766C3.25661 0.018108 3.18564 0.00499652 3.11422 0.00644079C3.0428 0.00788505 2.97242 0.023855 2.90737 0.0533775C2.84232 0.0829 2.78396 0.125357 2.73585 0.178162C2.68774 0.230966 2.65089 0.293013 2.62753 0.360522C2.60418 0.428031 2.59481 0.499588 2.6 0.570834V4.95C2.6 5.07377 2.55083 5.19247 2.46332 5.27998C2.3758 5.3675 2.2571 5.41667 2.13333 5.41667C2.00957 5.41667 1.89087 5.3675 1.80335 5.27998C1.71583 5.19247 1.66667 5.07377 1.66667 4.95V0.570834C1.66667 0.419656 1.6067 0.274651 1.49992 0.167635C1.39313 0.060619 1.24826 0.000331753 1.09708 7.05878e-07H1.08917ZM9.54583 8.33333L9.51958 8.71333C9.48042 9.28083 9.42792 10.0467 9.37625 10.84C9.27292 12.4125 9.16667 14.1296 9.16667 14.5833C9.16667 15.1359 9.38616 15.6658 9.77686 16.0565C10.1676 16.4472 10.6975 16.6667 11.25 16.6667C11.8025 16.6667 12.3324 16.4472 12.7231 16.0565C13.1138 15.6658 13.3333 15.1359 13.3333 14.5833C13.3333 14.0796 13.2021 12.1692 13.0883 10.52L13.0846 10.4658C12.9937 9.14417 12.9167 8.01667 12.9167 7.8125V0.520834C12.9167 0.233334 12.6833 7.05878e-07 12.3958 7.05878e-07H12.1875C9.59875 7.05878e-07 7.5 2.09875 7.5 4.6875V6.97917C7.5 7.33831 7.64267 7.68275 7.89663 7.93671C8.15058 8.19066 8.49502 8.33333 8.85417 8.33333H9.54583Z" fill="white"/>
</svg>
