<svg width="14" height="17" viewBox="0 0 14 17" fill="none" xmlns="http://www.w3.org/2000/svg">
<path d="M0.407501 1.13584C0.460298 0.817864 0.624449 0.529027 0.870617 0.320949C1.11678 0.112871 1.42892 -0.000887698 1.75125 5.21678e-06C2.08625 5.21678e-06 2.39292 0.120005 2.63125 0.318755C2.88978 0.112311 3.21082 -9.10452e-05 3.54167 5.21678e-06C3.88583 5.21678e-06 4.2025 0.119172 4.45208 0.318755C4.69876 0.112243 5.01038 -0.00063052 5.33208 5.21678e-06C5.65441 -0.000887698 5.96655 0.112871 6.21272 0.320949C6.45889 0.529027 6.62304 0.817864 6.67583 1.13584C6.82917 2.07417 7.08333 3.80334 7.08333 5.00001C7.08375 5.56281 6.94988 6.1176 6.69284 6.61828C6.4358 7.11896 6.063 7.55108 5.60542 7.87876C5.33875 8.07042 5.20833 8.30167 5.20833 8.49959C5.20833 8.51542 5.20875 8.52626 5.20958 8.53876C5.24625 8.99542 5.625 13.7367 5.625 14.5833C5.625 15.1359 5.40551 15.6658 5.01481 16.0565C4.62411 16.4472 4.0942 16.6667 3.54167 16.6667C2.98913 16.6667 2.45923 16.4472 2.06853 16.0565C1.67783 15.6658 1.45833 15.1359 1.45833 14.5833C1.45833 13.7367 1.83708 8.99542 1.87333 8.53876C1.8745 8.52573 1.87506 8.51266 1.875 8.49959C1.875 8.30167 1.745 8.07042 1.47792 7.87876C1.02034 7.55108 0.64754 7.11896 0.390497 6.61828C0.133453 6.1176 -0.000418535 5.56281 9.82953e-07 5.00001C9.82953e-07 3.80334 0.254168 2.07417 0.407501 1.13584ZM5 5.31251C5 5.45064 4.94513 5.58312 4.84745 5.68079C4.74978 5.77847 4.6173 5.83334 4.47917 5.83334C4.34103 5.83334 4.20856 5.77847 4.11088 5.68079C4.01321 5.58312 3.95833 5.45064 3.95833 5.31251V1.45834C3.95833 1.34783 3.91444 1.24185 3.8363 1.16371C3.75816 1.08557 3.65217 1.04167 3.54167 1.04167C3.43116 1.04167 3.32518 1.08557 3.24704 1.16371C3.1689 1.24185 3.125 1.34783 3.125 1.45834V5.31251C3.125 5.45064 3.07013 5.58312 2.97245 5.68079C2.87478 5.77847 2.7423 5.83334 2.60417 5.83334C2.46603 5.83334 2.33356 5.77847 2.23588 5.68079C2.13821 5.58312 2.08333 5.45064 2.08333 5.31251V1.37376C2.08333 1.28568 2.04835 1.20121 1.98607 1.13894C1.92379 1.07666 1.83932 1.04167 1.75125 1.04167C1.58958 1.04167 1.45958 1.15542 1.43542 1.30417C1.28125 2.24876 1.04167 3.89959 1.04167 5.00001C1.04126 5.39742 1.13576 5.78918 1.3173 6.14271C1.49885 6.49623 1.76219 6.80129 2.08542 7.03251C2.51042 7.33751 2.91667 7.84626 2.91667 8.49917C2.91667 8.54001 2.91542 8.57834 2.91208 8.62209C2.87208 9.11667 2.5 13.7917 2.5 14.5833C2.5 14.8596 2.60975 15.1246 2.8051 15.3199C3.00045 15.5153 3.2654 15.625 3.54167 15.625C3.81793 15.625 4.08289 15.5153 4.27824 15.3199C4.47359 15.1246 4.58333 14.8596 4.58333 14.5833C4.58333 13.7917 4.21125 9.11667 4.17167 8.62209C4.1685 8.58133 4.16683 8.54047 4.16667 8.49959C4.16667 7.84626 4.57292 7.33709 4.99792 7.03251C5.32115 6.80129 5.58449 6.49623 5.76603 6.14271C5.94758 5.78918 6.04208 5.39742 6.04167 5.00001C6.04167 3.89959 5.80208 2.24876 5.64792 1.30417C5.63505 1.23003 5.5962 1.16288 5.53832 1.11478C5.48045 1.06668 5.40733 1.04076 5.33208 1.04167C5.24401 1.04167 5.15954 1.07666 5.09727 1.13894C5.03499 1.20121 5 1.28568 5 1.37376V5.31251ZM12.2917 1.05501V7.81251C12.2917 8.05834 12.37 9.20001 12.4563 10.4521L12.4621 10.5371C12.5788 12.2313 12.7083 14.1213 12.7083 14.5833C12.7083 14.8596 12.5986 15.1246 12.4032 15.3199C12.2079 15.5153 11.9429 15.625 11.6667 15.625C11.3904 15.625 11.1254 15.5153 10.9301 15.3199C10.7347 15.1246 10.625 14.8596 10.625 14.5833C10.625 14.1742 10.7271 12.5058 10.8321 10.9083C10.8937 9.97349 10.9572 9.03877 11.0225 8.10417L11.0404 7.84917C11.0455 7.77786 11.0357 7.70628 11.0119 7.63888C10.9881 7.57148 10.9506 7.5097 10.9019 7.45741C10.8531 7.40511 10.7942 7.3634 10.7286 7.33489C10.663 7.30638 10.5923 7.29167 10.5208 7.29167H9.27083C9.18795 7.29167 9.10847 7.25875 9.04986 7.20014C8.99126 7.14154 8.95833 7.06205 8.95833 6.97917V4.68751C8.95831 3.77465 9.30074 2.89501 9.91793 2.22242C10.5351 1.54983 11.3822 1.13325 12.2917 1.05501ZM9.9625 8.33334L9.93625 8.71334C9.89708 9.28084 9.84458 10.0467 9.79292 10.84C9.68958 12.4125 9.58333 14.1296 9.58333 14.5833C9.58333 15.1359 9.80283 15.6658 10.1935 16.0565C10.5842 16.4472 11.1141 16.6667 11.6667 16.6667C12.2192 16.6667 12.7491 16.4472 13.1398 16.0565C13.5305 15.6658 13.75 15.1359 13.75 14.5833C13.75 14.0796 13.6188 12.1692 13.505 10.52L13.5013 10.4658C13.4104 9.14417 13.3333 8.01667 13.3333 7.81251V0.520839C13.3333 0.233339 13.1 5.21678e-06 12.8125 5.21678e-06H12.6042C10.0154 5.21678e-06 7.91667 2.09876 7.91667 4.68751V6.97917C7.91667 7.33832 8.05934 7.68276 8.31329 7.93671C8.56725 8.19067 8.91169 8.33334 9.27083 8.33334H9.9625Z" fill="black"/>
</svg>
