<svg width="18" height="18" viewBox="0 0 18 18" fill="none" xmlns="http://www.w3.org/2000/svg">
<path d="M2 18C1.45 18 0.979333 17.8043 0.588 17.413C0.196667 17.0217 0.000666667 16.5507 0 16V3.52501C0 3.29167 0.0376666 3.06667 0.113 2.85001C0.188333 2.63334 0.300667 2.43334 0.45 2.25001L1.7 0.725005C1.88333 0.491672 2.11233 0.312339 2.387 0.187005C2.66167 0.061672 2.94933 -0.000661376 3.25 5.291e-06H14.75C15.05 5.291e-06 15.3377 0.0626719 15.613 0.188005C15.8883 0.313339 16.1173 0.492339 16.3 0.725005L17.55 2.25001C17.7 2.43334 17.8127 2.63334 17.888 2.85001C17.9633 3.06667 18.0007 3.29167 18 3.52501V16C18 16.55 17.8043 17.021 17.413 17.413C17.0217 17.805 16.5507 18.0007 16 18H2ZM2.4 3.00001H15.6L14.75 2.00001H3.25L2.4 3.00001ZM13 5.00001H5V13L9 11L13 13V5.00001Z" fill="black"/>
</svg>
