<svg width="24" height="24" viewBox="0 0 24 24" fill="none" xmlns="http://www.w3.org/2000/svg">
<path d="M12.0011 17.275L7.85106 19.775C7.66773 19.8917 7.47606 19.9417 7.27606 19.925C7.07606 19.9083 6.90106 19.8417 6.75106 19.725C6.60106 19.6083 6.48439 19.4627 6.40106 19.288C6.31773 19.1133 6.30106 18.9173 6.35106 18.7L7.45106 13.975L3.77606 10.8C3.60939 10.65 3.50539 10.479 3.46406 10.287C3.42273 10.095 3.43506 9.90768 3.50106 9.72501C3.56706 9.54235 3.66706 9.39235 3.80106 9.27501C3.93506 9.15768 4.11839 9.08268 4.35106 9.05001L9.20106 8.62501L11.0761 4.17501C11.1594 3.97501 11.2887 3.82501 11.4641 3.72501C11.6394 3.62501 11.8184 3.57501 12.0011 3.57501C12.1837 3.57501 12.3627 3.62501 12.5381 3.72501C12.7134 3.82501 12.8427 3.97501 12.9261 4.17501L14.8011 8.62501L19.6511 9.05001C19.8844 9.08335 20.0677 9.15835 20.2011 9.27501C20.3344 9.39168 20.4344 9.54168 20.5011 9.72501C20.5677 9.90835 20.5804 10.096 20.5391 10.288C20.4977 10.48 20.3934 10.6507 20.2261 10.8L16.5511 13.975L17.6511 18.7C17.7011 18.9167 17.6844 19.1127 17.6011 19.288C17.5177 19.4633 17.4011 19.609 17.2511 19.725C17.1011 19.841 16.9261 19.9077 16.7261 19.925C16.5261 19.9423 16.3344 19.8923 16.1511 19.775L12.0011 17.275Z" fill="black"/>
</svg>
