<svg width="20" height="20" viewBox="0 0 20 20" fill="none" xmlns="http://www.w3.org/2000/svg">
<path d="M6.41769 2H14.0785C14.5464 2.00017 15.0011 2.1555 15.3714 2.44168C15.7416 2.72786 16.0065 3.12873 16.1246 3.58154L16.9277 6.66385C17.1177 7.39 16.92 8.02615 16.4892 8.47923C16.4077 8.56385 16.3205 8.64077 16.2277 8.71V14.8846C16.2277 15.4457 16.0048 15.9837 15.6081 16.3804C15.2114 16.7771 14.6734 17 14.1123 17H4.88769C4.32665 17 3.78859 16.7771 3.39188 16.3804C2.99517 15.9837 2.7723 15.4457 2.7723 14.8846V8.71077C2.67948 8.64154 2.5923 8.5641 2.51076 8.47846C2.07999 8.02615 1.8823 7.39 2.0723 6.66308L2.87537 3.58154C2.99347 3.12873 3.25838 2.72786 3.62863 2.44168C3.99888 2.1555 4.45357 2.00017 4.92153 2H6.41769ZM9.5 8.53539C9.44769 8.59077 9.39282 8.64333 9.33538 8.69308C8.89231 9.07462 8.32 9.25077 7.77 9.25077C7.22 9.25077 6.64769 9.07385 6.20461 8.69308C6.14633 8.64257 6.09062 8.58917 6.03769 8.53308C5.95512 8.61915 5.86502 8.69767 5.76846 8.76769C5.26846 9.12923 4.64307 9.24769 4.07307 9.19385C4.02422 9.18912 3.97548 9.18322 3.92691 9.17615V14.8846C3.92691 15.4154 4.35691 15.8462 4.88692 15.8462H14.1131C14.6439 15.8462 15.0739 15.4154 15.0739 14.8846V9.17615C15.0246 9.18333 14.9759 9.18923 14.9277 9.19385C14.3569 9.24769 13.7315 9.12923 13.2323 8.76769C13.1352 8.69775 13.0446 8.61923 12.9615 8.53308C12.9089 8.58915 12.8534 8.64255 12.7954 8.69308C12.3523 9.07462 11.78 9.25077 11.23 9.25077C10.68 9.25077 10.1077 9.07385 9.66461 8.69308C9.60718 8.64326 9.55224 8.59063 9.5 8.53539Z" fill="white"/>
</svg>
