<svg width="18" height="18" viewBox="0 0 18 18" fill="none" xmlns="http://www.w3.org/2000/svg">
<path d="M15.6636 7.85083V14.8333C15.6636 15.2754 15.488 15.6993 15.1755 16.0118C14.8629 16.3244 14.439 16.5 13.9969 16.5H4.00361C3.56173 16.4998 3.13802 16.3241 2.82564 16.0115C2.51326 15.699 2.33778 15.2752 2.33778 14.8333V7.85083M5.25194 6.29167L5.66861 1.5M5.25194 6.29167C5.25194 8.71 9.00028 8.71 9.00028 6.29167M5.25194 6.29167C5.25194 8.93833 0.95611 8.39167 1.55778 6.085L2.42861 2.74583C2.52168 2.38919 2.73034 2.07346 3.02196 1.84804C3.31358 1.62262 3.67169 1.50022 4.04028 1.5H13.9603C14.3289 1.50022 14.687 1.62262 14.9786 1.84804C15.2702 2.07346 15.4789 2.38919 15.5719 2.74583L16.4428 6.085C17.0444 8.3925 12.7486 8.93833 12.7486 6.29167M9.00028 6.29167V1.5M9.00028 6.29167C9.00028 8.71 12.7486 8.71 12.7486 6.29167M12.7486 6.29167L12.3319 1.5" stroke="black" stroke-width="1.25" stroke-linecap="round" stroke-linejoin="round"/>
</svg>
