<svg width="21" height="24" viewBox="0 0 21 24" fill="none" xmlns="http://www.w3.org/2000/svg">
<g clip-path="url(#clip0_4540_15161)">
<path d="M17.8633 4.8106C16.5659 3.96779 15.6303 2.61871 15.3379 1.04688C15.2751 0.707352 15.2401 0.357589 15.2401 0H11.1001L11.0935 16.5358C11.024 18.3875 9.49461 19.8739 7.62033 19.8739C7.03745 19.8739 6.489 19.7288 6.00578 19.4754C4.89801 18.8944 4.13996 17.7374 4.13996 16.4057C4.13996 14.4932 5.70135 12.937 7.61973 12.937C7.97791 12.937 8.3216 12.996 8.64656 13.0971V8.88494C8.31012 8.83919 7.96825 8.8109 7.61973 8.8109C3.41816 8.8109 0 12.2176 0 16.4057C0 18.9751 1.28777 21.2489 3.25326 22.6238C4.4909 23.4901 5.99672 24 7.62033 24C11.8219 24 15.2401 20.5933 15.2401 16.4057V8.02047C16.8637 9.18173 18.8533 9.8662 21 9.8662V5.74009C19.8439 5.74009 18.7669 5.39755 17.8633 4.8106Z" fill="black"/>
</g>
<defs>
<clipPath id="clip0_4540_15161">
<rect width="21" height="24" fill="white"/>
</clipPath>
</defs>
</svg>
