<svg width="14" height="18" viewBox="0 0 14 18" fill="none" xmlns="http://www.w3.org/2000/svg">
<path d="M7 17.842C6.90933 17.842 6.81367 17.8337 6.713 17.817C6.61233 17.8003 6.519 17.7753 6.433 17.742C4.46433 16.992 2.9 15.72 1.74 13.926C0.58 12.132 0 10.19 0 8.09999V3.81699C0 3.47699 0.0983334 3.16932 0.295 2.89399C0.491667 2.61865 0.743334 2.41866 1.05 2.29399L6.435 0.293988C6.62967 0.223322 6.818 0.187988 7 0.187988C7.182 0.187988 7.37067 0.223322 7.566 0.293988L12.95 2.29399C13.2567 2.41866 13.5083 2.61865 13.705 2.89399C13.9017 3.16932 14 3.47699 14 3.81699V8.09999C14 10.19 13.42 12.132 12.26 13.926C11.1 15.72 9.53567 16.992 7.567 17.742C7.48033 17.7753 7.387 17.8003 7.287 17.817C7.187 17.8337 7.09133 17.842 7 17.842Z" fill="black"/>
</svg>
